<?xml version="1.0" encoding="UTF-8"?>
<svg xmlns="http://www.w3.org/2000/svg" id="Outline" viewBox="0 0 512 512" width="512" height="512"><circle cx="288" cy="136" r="8"/><circle cx="208" cy="136" r="8"/><path d="M104.109,193.315a7.992,7.992,0,0,0,9.206,6.576l22.455-3.742c6.1,12.337,15.744,22.869,28.713,31.193,2.482,1.593,5.081,3.09,7.775,4.5A88.306,88.306,0,0,0,152,288v11.216C127.657,337.429,112,386.139,112,424c0,22.369,5.364,39.443,16.333,52.04A23.978,23.978,0,0,0,152,504h64a23.968,23.968,0,0,0,14.757-5.065A31.794,31.794,0,0,0,248,504H376a32,32,0,0,0,6.842-63.256A115.661,115.661,0,0,0,384,424c0-37.86-15.656-86.57-40-124.784V288a88.308,88.308,0,0,0-20.258-56.153c2.694-1.415,5.293-2.912,7.775-4.5,12.969-8.324,22.608-18.856,28.713-31.193l22.455,3.742a8,8,0,1,0,2.63-15.782l-19.551-3.259A82.638,82.638,0,0,0,368,161.455c0-2.2-.09-4.411-.25-6.636l17.565-2.928a8,8,0,0,0-2.63-15.782L368,138.556V25.893a17.883,17.883,0,0,0-27.359-15.161,8.155,8.155,0,0,0-.71.5L291.507,49.355a105.878,105.878,0,0,0-87.019,0l-48.419-38.12a8.155,8.155,0,0,0-.71-.5A17.883,17.883,0,0,0,128,25.893V138.556l-14.685-2.447a8,8,0,0,0-2.63,15.782l17.563,2.927c-.158,2.223-.248,4.437-.248,6.637a82.638,82.638,0,0,0,2.236,19.395l-19.551,3.259A8,8,0,0,0,104.109,193.315ZM128,424c0-27.514,9.058-61.4,24-92.029V456a23.876,23.876,0,0,0-14.886,5.195C131,451.953,128,439.7,128,424Zm152,64H248a16,16,0,0,1,0-32h32ZM216,360c0-29.907,17.047-64,32-64s32,34.093,32,64c0,22.131-9.869,32-32,32S216,382.131,216,360Zm128-28.029C358.942,362.6,368,396.486,368,424a97.134,97.134,0,0,1-1.239,16H344ZM352,472a8,8,0,0,0,8-8v-8h16a16,16,0,0,1,0,32H296V456h16v8a8,8,0,0,0,16,0v-8h16v8A8,8,0,0,0,352,472ZM328,288v8h-8a8,8,0,0,0,0,16h8v16h-8a8,8,0,0,0,0,16h8v16h-8a8,8,0,0,0,0,16h8v64H256V407.584c25.874-2.765,40-19.412,40-47.584,0-16.688-4.708-35.845-12.6-51.245C273.908,290.212,261.334,280,248,280s-25.908,10.212-35.4,28.755C204.708,324.155,200,343.312,200,360c0,28.172,14.126,44.819,40,47.584v33.429a31.985,31.985,0,0,0-20.235,46.028A7.977,7.977,0,0,1,216,488H152a8,8,0,0,1,0-16h32a8,8,0,0,0,0-16H168V376h8a8,8,0,0,0,0-16h-8V344h8a8,8,0,0,0,0-16h-8V312h8a8,8,0,0,0,0-16h-8v-8a72.235,72.235,0,0,1,19.688-49.438C205.048,244.766,225.457,248,248,248s42.952-3.234,60.312-9.438A72.235,72.235,0,0,1,328,288ZM349.362,24.169A1.887,1.887,0,0,1,352,25.893v79.3a137.8,137.8,0,0,0-18.953-25.8,133.006,133.006,0,0,0-26.132-21.8ZM144,25.893a1.887,1.887,0,0,1,2.638-1.724l42.438,33.413A136.276,136.276,0,0,0,144,105.18Zm.11,131.569,14.575,2.429a8,8,0,1,0,2.63-15.782l-14.874-2.479c4.32-18.073,14.2-36.3,28.214-51.329A112.8,112.8,0,0,1,208,65.368V80a8,8,0,0,0,16,0V59.317a90.316,90.316,0,0,1,16-2.946V96a8,8,0,0,0,16,0V56.371a90.316,90.316,0,0,1,16,2.946V80a8,8,0,0,0,16,0V65.368A112.8,112.8,0,0,1,321.345,90.3c14.011,15.026,23.894,33.256,28.214,51.329l-14.874,2.479a8,8,0,1,0,2.63,15.782l14.575-2.429c.069,1.337.11,2.67.11,3.993a65.61,65.61,0,0,1-2.085,16.754l-12.6-2.1a8,8,0,0,0-2.63,15.782l8.793,1.466C326.37,221.3,286.194,232,248,232s-78.37-10.7-95.478-38.643l8.793-1.466a8,8,0,1,0-2.63-15.782l-12.6,2.1A65.61,65.61,0,0,1,144,161.455C144,160.132,144.041,158.8,144.11,157.462Z"/><path d="M232.008,200a7.972,7.972,0,0,0,3.551-.836A57.734,57.734,0,0,0,248,190.854a57.733,57.733,0,0,0,12.442,8.312,8,8,0,0,0,7.126-14.326c-5.125-2.564-10.752-6.951-11.568-8.991V168a8,8,0,0,0,8-8c0-7.756-5.608-16-16-16s-16,8.244-16,16a8,8,0,0,0,8,8v7.847c-.813,2.039-6.441,6.427-11.558,8.987A8,8,0,0,0,232.008,200Z"/></svg>
