<?xml version="1.0" encoding="UTF-8"?>
<svg xmlns="http://www.w3.org/2000/svg" id="Outline" viewBox="0 0 512 512" width="512" height="512"><circle cx="384" cy="368" r="8"/><circle cx="304" cy="368" r="8"/><path d="M457.569,408.155,439.49,404.54c.139-1.482.244-3,.324-4.54H440V379.359l17.569-3.514a8,8,0,0,0-3.138-15.69L440,363.042V289.893a17.883,17.883,0,0,0-27.359-15.161c-.187.117-.369.241-.544.372l-28.064,20.927a103.794,103.794,0,0,0-80.066,0l-3.122-2.328C314.668,288.244,320,274.167,320,264a8,8,0,0,0-5.383-7.56c-6.755-2.338-17.964-15.332-18.56-75.374a31.908,31.908,0,0,0-.057-42.2V136a123.218,123.218,0,0,0-33.163-84.667C241.478,28.548,213.479,16,184,16s-57.478,12.548-78.837,35.333A123.218,123.218,0,0,0,72,136v2.868a31.908,31.908,0,0,0-.057,42.2c-.6,60.042-11.8,73.036-18.56,75.374A8,8,0,0,0,48,264c0,10.728,5.937,25.811,21.525,30.525A103.992,103.992,0,0,0,64,328V488a8,8,0,0,0,8,8H416a8,8,0,0,0,8-8,79.675,79.675,0,0,0-9.277-37.408c10.735-6.916,17.992-16.934,21.876-30.314l17.832,3.567a8.11,8.11,0,0,0,1.578.157,8,8,0,0,0,1.56-15.847ZM421.3,288.2a1.884,1.884,0,0,1,2.7,1.694v41.935a94.046,94.046,0,0,0-8.614-12.132A88.055,88.055,0,0,0,399.2,304.681ZM288.8,304.681A88.055,88.055,0,0,0,272.614,319.7,94.046,94.046,0,0,0,264,331.828V289.893a1.884,1.884,0,0,1,2.7-1.694Zm14.5-36.2a19.879,19.879,0,0,1-1.647,4.313,12.679,12.679,0,0,1-9.55,6.859,104.185,104.185,0,0,0-49.141-46.385,88.137,88.137,0,0,0,25.758-41.441,31.734,31.734,0,0,0,11.514-.906C281.131,221.726,285.538,256.3,303.3,268.481Zm-119.539,9.9L166.772,267.06l-3.375-13.5a88.211,88.211,0,0,0,40.7.125L200.75,267.06ZM80,160a16.019,16.019,0,0,1,16-16v24c0,2.692.128,5.354.366,7.985-.122,0-.243.015-.366.015A16.019,16.019,0,0,1,80,160Zm32-17.257a36.036,36.036,0,0,0,23.155-19.165c1.1-2.194,2.177-4.14,3.241-5.873a8,8,0,0,0,11.261-11.362l-.261-.262A18.81,18.81,0,0,1,158.77,104c11.7,0,19.693-6.663,24.876-13.695C189.889,99.276,198.265,104,208,104a21.315,21.315,0,0,1,10.334,2.352,8,8,0,0,0,11.239,11.381c1.091,1.728,2.183,3.667,3.272,5.845A36.036,36.036,0,0,0,256,142.743V168a72,72,0,0,1-144,0ZM288,160a16.019,16.019,0,0,1-16,16c-.123,0-.244-.013-.366-.015.238-2.631.366-5.293.366-7.985V144A16.019,16.019,0,0,1,288,160ZM251.163,62.275a106.955,106.955,0,0,1,28.609,66.684A31.971,31.971,0,0,0,272,128h-7.909a20.464,20.464,0,0,1-16.936-11.579,76.323,76.323,0,0,0-6.066-10.2l4.568-4.568a8,8,0,0,0-11.314-11.314l-4.434,4.433A36.894,36.894,0,0,0,208,88c-10.4,0-15.021-13.68-16-17.051V32.376C214.06,34.415,234.824,44.846,251.163,62.275Zm-134.326,0c16.339-17.429,37.1-27.86,59.163-29.9V70.74C174.708,74.458,169.281,88,158.77,88a34.468,34.468,0,0,0-20.955,6.5l-4.158-4.157a8,8,0,1,0-11.314,11.314l4.491,4.492a85.549,85.549,0,0,0-5.989,10.273A20.465,20.465,0,0,1,104,128H96a31.971,31.971,0,0,0-7.772.959A106.955,106.955,0,0,1,116.837,62.275ZM66.347,272.794a19.849,19.849,0,0,1-1.639-4.281c9.682-6.534,16.2-20.092,19.828-41.154a261.259,261.259,0,0,0,3.248-36.433,31.738,31.738,0,0,0,11.5.9,88.15,88.15,0,0,0,25.748,41.433,103.894,103.894,0,0,0-49.115,46.4A12.683,12.683,0,0,1,66.347,272.794ZM96,277.373V352H80V328A87.915,87.915,0,0,1,96,277.373ZM80,368H96V480H80Zm32,112V260.088a87.556,87.556,0,0,1,28.413-15.662q2.38,1.362,4.852,2.576L152,273.94a8,8,0,0,0,3.324,4.716L176,292.44V480Zm80-187.878,20.2-13.466a8,8,0,0,0,3.323-4.716l6.667-26.667q2.762-1.335,5.411-2.855a88.027,88.027,0,0,1,40.43,27.738A17.862,17.862,0,0,0,248,289.893v73.149l-14.431-2.887a8,8,0,0,0-3.138,15.69L248,379.359V400h.186c.08,1.542.185,3.058.324,4.54l-18.079,3.615A8,8,0,0,0,231.991,424a8.11,8.11,0,0,0,1.578-.157l17.832-3.567c3.884,13.38,11.141,23.4,21.876,30.314A79.5,79.5,0,0,0,264.407,480H192ZM280.5,480a63.486,63.486,0,0,1,7.254-22.5c11.039,3.7,27.773,6.5,56.251,6.5,18.775,0,39.363-.931,56.2-6.588a63.537,63.537,0,0,1,7.3,22.588Zm124.631-42.238C393.248,444.938,374.967,448,344,448s-49.248-3.062-61.126-10.238c-7.68-4.64-12.838-11.3-15.8-20.618l6.494-1.3a8,8,0,1,0-3.138-15.69l-6.165,1.233c-.176-2.514-.266-5.154-.266-7.934,0-3.6.165-7.211.492-10.8l5.939,1.188a8.11,8.11,0,0,0,1.578.157,8,8,0,0,0,1.56-15.847l-6.5-1.3C272.3,344.876,284.352,325.2,304,313.937V328a8,8,0,0,0,16,0V307.21a82.9,82.9,0,0,1,16-2.879V344a8,8,0,0,0,16,0V304.331a82.9,82.9,0,0,1,16,2.879V328a8,8,0,0,0,16,0V313.937c19.648,11.263,31.7,30.939,36.936,52.917l-6.5,1.3A8,8,0,0,0,415.991,384a8.11,8.11,0,0,0,1.578-.157l5.939-1.188c.327,3.586.492,7.193.492,10.8,0,2.78-.09,5.42-.266,7.934l-6.165-1.233a8,8,0,0,0-3.138,15.69l6.494,1.3C417.964,426.459,412.806,433.122,405.126,437.762Z"/><circle cx="152" cy="168" r="8"/><circle cx="216" cy="168" r="8"/><path d="M154.343,205.657C155.4,206.715,165.228,216,184,216h0c18.772,0,28.6-9.285,29.657-10.343a8,8,0,0,0-11.314-11.315c-.056.057-6.2,5.658-18.343,5.658s-18.286-5.6-18.343-5.658a8,8,0,0,0-11.314,11.315Z"/><path d="M363.573,416.838c-5.125-2.564-10.752-6.951-11.568-8.991V400a8,8,0,0,0,8-8c0-7.756-5.607-16-16-16s-16,8.244-16,16a8,8,0,0,0,8,8v7.847c-.813,2.039-6.441,6.427-11.558,8.988a8,8,0,1,0,7.116,14.331,57.733,57.733,0,0,0,12.442-8.312,57.733,57.733,0,0,0,12.442,8.312,8,8,0,0,0,7.126-14.326Z"/></svg>
